<?xml version="1.0" encoding="utf-8"?>
<svg xmlns="http://www.w3.org/2000/svg" viewBox="3387.4211 851.0676 885.3625 712.4337" width="885.362px" height="712.434px" preserveAspectRatio="none"><g id="object-4" transform="matrix(0.9999999999999999, 0, 0, 0.9999999999999999, 5.684341886080802e-14, 0)"><path fill="#F0F4F7" opacity="1.000000" stroke="none" d="M 4190.56 1074.49 C 4190.78 1057.92 4190.25 1042.43 4186.46 1027.06 C 4177.32 990.052 4155.02 964.706 4119.88 950.588 C 4100.58 942.834 4080.33 939.43 4059.56 939.395 C 4015.57 939.32 3971.58 939.294 3927.59 939.392 C 3756.35 939.775 3585.11 940.119 3413.88 940.885 C 3404.32 940.927 3399.45 937.766 3395.62 929.57 C 3386.25 909.514 3383.66 889.439 3394.52 869.323 C 3397.6 863.602 3402.49 858.778 3406.95 853.915 C 3408.31 852.438 3410.96 851.883 3413.13 851.499 C 3415.39 851.097 3417.78 851.409 3420.11 851.409 C 3613.74 851.396 3807.37 851.383 4001 851.372 C 4023.3 851.37 4045.63 850.585 4067.89 851.544 C 4109.99 853.358 4149.92 863.148 4185.73 886.629 C 4224.42 912.005 4249.16 947.485 4262.38 991.439 C 4271.77 1022.7 4274.57 1054.74 4271.72 1087.06 C 4267.72 1132.41 4253.52 1174.01 4223.06 1208.98 C 4198.05 1237.69 4166.61 1256.11 4130.38 1266.68 C 4105.69 1273.88 4080.36 1277.25 4054.7 1277.3 C 3966.05 1277.47 3877.4 1277.37 3788.75 1277.36 C 3786.45 1277.36 3784.15 1277.15 3781.41 1277.01 C 3771.63 1247.85 3767.8 1218.99 3781.9 1189.38 C 3785.72 1189.38 3789.33 1189.38 3792.93 1189.38 C 3876.92 1189.38 3960.9 1189.45 4044.88 1189.31 C 4061.79 1189.28 4078.72 1188.7 4095.35 1184.96 C 4118.06 1179.85 4138.9 1171.1 4156.16 1154.81 C 4174.34 1137.65 4184.13 1116.35 4188.41 1092.16 C 4189.39 1086.63 4189.85 1081.01 4190.56 1074.49 Z" id="object-0"/><path fill="#F0F4F7" opacity="1.000000" stroke="none" d="M 3967.4 1037.86 C 3969.11 1045.74 3970.82 1052.85 3971.86 1060.05 C 3974.06 1075.23 3972.11 1089.88 3964.78 1104.69 C 3962.05 1104.69 3958.79 1104.7 3955.53 1104.69 C 3890.21 1104.61 3824.88 1104.59 3759.56 1104.4 C 3744.97 1104.35 3730.38 1103.37 3715.79 1103.46 C 3695.55 1103.59 3675.29 1104.12 3655.53 1109.28 C 3628.85 1116.24 3606.5 1129.67 3591.26 1153.28 C 3580.76 1169.54 3575.63 1187.67 3574.23 1206.83 C 3572.55 1229.97 3574.68 1252.66 3584.47 1274.08 C 3598.51 1304.82 3623.54 1322.21 3655.3 1330.31 C 3667.41 1333.4 3680.17 1334.83 3692.68 1335.16 C 3721 1335.91 3749.34 1335.4 3777.66 1335.6 C 3816.95 1335.87 3856.23 1336.41 3895.52 1336.61 C 3900.62 1336.64 3905.09 1337.53 3907.43 1342.12 C 3918.92 1364.75 3929.14 1387.81 3928.58 1413.99 C 3928.56 1415.29 3928.27 1416.58 3927.99 1418.69 C 3925.25 1418.69 3922.68 1418.69 3920.12 1418.69 C 3882.12 1418.63 3844.13 1418.71 3806.14 1418.49 C 3766.88 1418.27 3727.59 1418.55 3688.36 1417.16 C 3641.42 1415.5 3598.01 1402.66 3561.25 1371.79 C 3537.73 1352.04 3520.97 1327.41 3511.08 1298.59 C 3492.9 1245.61 3492.65 1192.3 3511.83 1139.46 C 3531.61 1084.96 3570.83 1050.53 3625.34 1033.01 C 3647.23 1025.97 3669.85 1022.45 3693 1022.62 C 3705.28 1022.71 3717.56 1021.59 3729.84 1021.63 C 3805.13 1021.89 3880.42 1022.32 3955.7 1022.7 C 3957.65 1022.71 3959.6 1022.7 3961.83 1022.7 C 3963.7 1027.82 3965.4 1032.47 3967.4 1037.86 Z" id="object-1"/><path fill="#EFF3F6" opacity="1.000000" stroke="none" d="M 3590.89 1425.39 C 3614.05 1425.39 3636.29 1425.39 3659.2 1425.39 C 3659.2 1468.18 3659.2 1510.26 3659.2 1552.54 C 3640.02 1566.66 3597.93 1567.51 3582.15 1552.92 C 3582.15 1510.95 3582.15 1468.76 3582.15 1425.88 C 3584.92 1425.7 3587.44 1425.55 3590.89 1425.39 Z" id="object-2"/></g></svg>