<svg version="1.1" id="Layer_1" xmlns="http://www.w3.org/2000/svg" xmlns:xlink="http://www.w3.org/1999/xlink" x="0px" y="0px"
	 width="100%" viewBox="0 0 3000 3000" enable-background="new 0 0 3000 3000" xml:space="preserve">
<path fill="#000000" opacity="1.000000" stroke="none" 
	d="
M1458.000000,3002.000000 
	C972.000061,3002.000000 487.000183,3002.000000 2.000195,3002.000000 
	C2.000130,2002.000244 2.000130,1002.000549 2.000065,2.000598 
	C1001.999573,2.000399 2001.999146,2.000399 3001.999023,2.000199 
	C3001.999512,1001.999329 3001.999512,2001.998657 3001.999756,3001.999023 
	C2487.666748,3002.000000 1973.333374,3002.000000 1458.000000,3002.000000 
M1892.322021,1092.388184 
	C1891.620239,1097.968750 1891.155151,1103.591064 1890.175903,1109.122559 
	C1885.894043,1133.308228 1876.104858,1154.609497 1857.930786,1171.766479 
	C1840.665527,1188.065430 1819.830322,1196.807495 1797.112671,1201.923218 
	C1780.491455,1205.666016 1763.559448,1206.238892 1746.650269,1206.267334 
	C1662.666626,1206.408691 1578.682739,1206.335938 1494.698853,1206.338745 
	C1491.094971,1206.338867 1487.491211,1206.338745 1483.663818,1206.338745 
	C1469.571289,1235.956299 1473.393921,1264.808838 1483.178833,1293.973999 
	C1485.912476,1294.108887 1488.213501,1294.321411 1490.514648,1294.321655 
	C1579.164307,1294.334595 1667.814087,1294.433838 1756.463379,1294.258179 
	C1782.125244,1294.207397 1807.459595,1290.843506 1832.141479,1283.641479 
	C1868.381470,1273.066895 1899.815796,1254.655884 1924.826172,1225.937378 
	C1955.281982,1190.966187 1969.485718,1149.366821 1973.486328,1104.022461 
	C1976.337524,1071.705322 1973.539185,1039.656250 1964.143555,1008.399841 
	C1950.930908,964.446411 1926.190552,928.966064 1887.493042,903.590210 
	C1851.685425,880.109558 1811.754517,870.319092 1769.655273,868.505188 
	C1747.397949,867.546204 1725.065552,868.331360 1702.766968,868.332764 
	C1509.137573,868.344666 1315.508179,868.357483 1121.878784,868.369995 
	C1119.545898,868.370117 1117.157593,868.058105 1114.895996,868.459900 
	C1112.729980,868.844727 1110.072998,869.399414 1108.717529,870.875977 
	C1104.253174,875.739258 1099.370605,880.563171 1096.283813,886.284424 
	C1085.430786,906.400146 1088.019165,926.475220 1097.386475,946.531738 
	C1101.214233,954.727661 1106.091553,957.888611 1115.642700,957.845947 
	C1286.878418,957.080017 1458.116089,956.735962 1629.353271,956.353333 
	C1673.344727,956.255005 1717.336426,956.281128 1761.327881,956.356079 
	C1782.097656,956.391479 1802.344482,959.794922 1821.645264,967.549194 
	C1856.786133,981.667297 1879.083740,1007.013611 1888.225342,1044.024780 
	C1892.021240,1059.393188 1892.543945,1074.878418 1892.322021,1092.388184 
M1668.864868,1054.075928 
	C1667.165649,1049.427490 1665.466431,1044.779175 1663.595703,1039.661499 
	C1661.369141,1039.661499 1659.420166,1039.670044 1657.471313,1039.660278 
	C1582.184692,1039.284668 1506.898193,1038.848389 1431.611084,1038.589355 
	C1419.330200,1038.547119 1407.043823,1039.669434 1394.764893,1039.580811 
	C1371.617432,1039.413696 1348.996826,1042.934204 1327.104736,1049.971802 
	C1272.597900,1067.493652 1233.375977,1101.918335 1213.593750,1156.426636 
	C1194.419312,1209.260010 1194.666626,1262.575562 1212.842529,1315.551392 
	C1222.731812,1344.375244 1239.498779,1369.001587 1263.020630,1388.754883 
	C1299.774658,1419.620361 1343.189819,1432.463623 1390.127075,1434.122803 
	C1429.352905,1435.509399 1468.641479,1435.227295 1507.903564,1435.453125 
	C1545.896362,1435.671631 1583.890869,1435.595215 1621.884644,1435.647705 
	C1624.451294,1435.651245 1627.017944,1435.648193 1629.760498,1435.648193 
	C1630.032837,1433.543579 1630.322388,1432.251587 1630.349731,1430.954102 
	C1630.903442,1404.765869 1620.683716,1381.709717 1609.193115,1359.083496 
	C1606.859131,1354.487671 1602.382446,1353.599365 1597.284424,1353.572754 
	C1557.999756,1353.367676 1518.716675,1352.831177 1479.432129,1352.555908 
	C1451.104370,1352.357422 1422.762573,1352.872314 1394.452026,1352.123657 
	C1381.939087,1351.792725 1369.172119,1350.359741 1357.070435,1347.271851 
	C1325.310791,1339.168335 1300.279297,1321.781250 1286.232910,1291.040894 
	C1276.444824,1269.619629 1274.319092,1246.933472 1276.000488,1223.787842 
	C1277.391602,1204.636719 1282.529053,1186.503784 1293.029297,1170.240112 
	C1308.269165,1146.635376 1330.616333,1133.200806 1357.293823,1126.239014 
	C1377.057861,1121.081177 1397.319824,1120.553833 1417.555298,1120.423584 
	C1432.142944,1120.329590 1446.735107,1121.314941 1461.326538,1121.357300 
	C1526.649292,1121.547363 1591.972290,1121.572266 1657.295288,1121.655884 
	C1660.554199,1121.660034 1663.813110,1121.656372 1666.546265,1121.656372 
	C1673.875854,1106.846436 1675.825073,1092.188843 1673.627197,1077.007080 
	C1672.584961,1069.807739 1670.873169,1062.705566 1668.864868,1054.075928 
M1291.722900,1442.347656 
	C1289.204590,1442.506836 1286.686157,1442.665894 1283.919312,1442.840820 
	C1283.919312,1485.718140 1283.919312,1527.912476 1283.919312,1569.884399 
	C1299.696411,1584.467285 1341.782593,1583.619507 1360.966553,1569.504639 
	C1360.966553,1527.224365 1360.966553,1485.137329 1360.966553,1442.347534 
	C1338.058960,1442.347534 1315.819580,1442.347534 1291.722900,1442.347656 
z"/>
<path fill="#F0F4F7" opacity="1.000000" stroke="none" 
	d="
M1892.326660,1091.450073 
	C1892.543945,1074.878418 1892.021240,1059.393188 1888.225342,1044.024780 
	C1879.083740,1007.013611 1856.786133,981.667297 1821.645264,967.549194 
	C1802.344482,959.794922 1782.097656,956.391479 1761.327881,956.356079 
	C1717.336426,956.281128 1673.344727,956.255005 1629.353271,956.353333 
	C1458.116089,956.735962 1286.878418,957.080017 1115.642700,957.845947 
	C1106.091553,957.888611 1101.214233,954.727661 1097.386475,946.531738 
	C1088.019165,926.475220 1085.430786,906.400146 1096.283813,886.284424 
	C1099.370605,880.563171 1104.253174,875.739258 1108.717529,870.875977 
	C1110.072998,869.399414 1112.729980,868.844727 1114.895996,868.459900 
	C1117.157593,868.058105 1119.545898,868.370117 1121.878784,868.369995 
	C1315.508179,868.357483 1509.137573,868.344666 1702.766968,868.332764 
	C1725.065552,868.331360 1747.397949,867.546204 1769.655273,868.505188 
	C1811.754517,870.319092 1851.685425,880.109558 1887.493042,903.590210 
	C1926.190552,928.966064 1950.930908,964.446411 1964.143555,1008.399841 
	C1973.539185,1039.656250 1976.337524,1071.705322 1973.486328,1104.022461 
	C1969.485718,1149.366821 1955.281982,1190.966187 1924.826172,1225.937378 
	C1899.815796,1254.655884 1868.381470,1273.066895 1832.141479,1283.641479 
	C1807.459595,1290.843506 1782.125244,1294.207397 1756.463379,1294.258179 
	C1667.814087,1294.433838 1579.164307,1294.334595 1490.514648,1294.321655 
	C1488.213501,1294.321411 1485.912476,1294.108887 1483.178833,1293.973999 
	C1473.393921,1264.808838 1469.571289,1235.956299 1483.663818,1206.338745 
	C1487.491211,1206.338745 1491.094971,1206.338867 1494.698853,1206.338745 
	C1578.682739,1206.335938 1662.666626,1206.408691 1746.650269,1206.267334 
	C1763.559448,1206.238892 1780.491455,1205.666016 1797.112671,1201.923218 
	C1819.830322,1196.807495 1840.665527,1188.065430 1857.930786,1171.766479 
	C1876.104858,1154.609497 1885.894043,1133.308228 1890.175903,1109.122559 
	C1891.155151,1103.591064 1891.620239,1097.968750 1892.326660,1091.450073 
z"/>
<path fill="#F0F4F7" opacity="1.000000" stroke="none" 
	d="
M1669.164795,1054.817627 
	C1670.873169,1062.705566 1672.584961,1069.807739 1673.627197,1077.007080 
	C1675.825073,1092.188843 1673.875854,1106.846436 1666.546265,1121.656372 
	C1663.813110,1121.656372 1660.554199,1121.660034 1657.295288,1121.655884 
	C1591.972290,1121.572266 1526.649292,1121.547363 1461.326538,1121.357300 
	C1446.735107,1121.314941 1432.142944,1120.329590 1417.555298,1120.423584 
	C1397.319824,1120.553833 1377.057861,1121.081177 1357.293823,1126.239014 
	C1330.616333,1133.200806 1308.269165,1146.635376 1293.029297,1170.240112 
	C1282.529053,1186.503784 1277.391602,1204.636719 1276.000488,1223.787842 
	C1274.319092,1246.933472 1276.444824,1269.619629 1286.232910,1291.040894 
	C1300.279297,1321.781250 1325.310791,1339.168335 1357.070435,1347.271851 
	C1369.172119,1350.359741 1381.939087,1351.792725 1394.452026,1352.123657 
	C1422.762573,1352.872314 1451.104370,1352.357422 1479.432129,1352.555908 
	C1518.716675,1352.831177 1557.999756,1353.367676 1597.284424,1353.572754 
	C1602.382446,1353.599365 1606.859131,1354.487671 1609.193115,1359.083496 
	C1620.683716,1381.709717 1630.903442,1404.765869 1630.349731,1430.954102 
	C1630.322388,1432.251587 1630.032837,1433.543579 1629.760498,1435.648193 
	C1627.017944,1435.648193 1624.451294,1435.651245 1621.884644,1435.647705 
	C1583.890869,1435.595215 1545.896362,1435.671631 1507.903564,1435.453125 
	C1468.641479,1435.227295 1429.352905,1435.509399 1390.127075,1434.122803 
	C1343.189819,1432.463623 1299.774658,1419.620361 1263.020630,1388.754883 
	C1239.498779,1369.001587 1222.731812,1344.375244 1212.842529,1315.551392 
	C1194.666626,1262.575562 1194.419312,1209.260010 1213.593750,1156.426636 
	C1233.375977,1101.918335 1272.597900,1067.493652 1327.104736,1049.971802 
	C1348.996826,1042.934204 1371.617432,1039.413696 1394.764893,1039.580811 
	C1407.043823,1039.669434 1419.330200,1038.547119 1431.611084,1038.589355 
	C1506.898193,1038.848389 1582.184692,1039.284668 1657.471313,1039.660278 
	C1659.420166,1039.670044 1661.369141,1039.661499 1663.595703,1039.661499 
	C1665.466431,1044.779175 1667.165649,1049.427490 1669.164795,1054.817627 
z"/>
<path fill="#EFF3F6" opacity="1.000000" stroke="none" 
	d="
M1292.651611,1442.347656 
	C1315.819580,1442.347534 1338.058960,1442.347534 1360.966553,1442.347534 
	C1360.966553,1485.137329 1360.966553,1527.224365 1360.966553,1569.504639 
	C1341.782593,1583.619507 1299.696411,1584.467285 1283.919312,1569.884399 
	C1283.919312,1527.912476 1283.919312,1485.718140 1283.919312,1442.840820 
	C1286.686157,1442.665894 1289.204590,1442.506836 1292.651611,1442.347656 
z"/>
</svg>